<?xml version="1.0" standalone="no"?>
<!DOCTYPE svg PUBLIC "-//W3C//DTD SVG 20010904//EN"
 "http://www.w3.org/TR/2001/REC-SVG-20010904/DTD/svg10.dtd">
<svg version="1.0" xmlns="http://www.w3.org/2000/svg"
 width="500.000000pt" height="500.000000pt" viewBox="0 0 500.000000 500.000000"
 preserveAspectRatio="xMidYMid meet">

<g transform="translate(0.000000,500.000000) scale(0.100000,-0.100000)"
fill="#000000" stroke="none">
<path d="M2904 3783 c-185 -200 -229 -243 -244 -237 -46 19 -51 16 -160 -92
-84 -83 -110 -103 -110 -87 0 66 -8 60 -222 -139 l-28 -26 0 -164 c0 -90 4
-179 10 -197 13 -45 39 -72 192 -197 70 -57 133 -114 140 -127 8 -15 11 -62
10 -143 -2 -89 1 -124 10 -131 42 -34 191 -38 266 -7 l32 13 2 148 c1 81 2
165 1 186 -2 52 -43 137 -103 213 -63 80 -78 110 -62 126 8 8 6 19 -10 40 -11
16 -19 30 -17 31 2 2 17 7 33 12 16 6 31 15 33 21 2 6 -25 30 -60 52 -59 39
-64 46 -84 106 l-20 64 98 98 c77 76 99 105 99 126 0 15 -5 30 -11 34 -16 10
146 169 207 204 51 29 101 90 89 110 -14 22 -49 8 -91 -37z m-531 -558 c19
-19 42 -35 50 -35 9 0 13 -7 10 -23 -4 -20 -10 -23 -35 -19 -25 4 -37 -3 -74
-39 l-44 -43 0 69 c0 61 3 72 27 97 15 15 28 28 29 28 1 0 18 -16 37 -35z"/>
<path d="M2775 3480 c-4 -6 3 -21 15 -32 l22 -20 -4 28 c-3 29 -22 43 -33 24z"/>
<path d="M2811 3393 c-1 -30 -3 -32 -36 -31 -40 1 -50 -5 -42 -27 7 -18 58
-20 74 -4 12 12 14 7 41 -111 6 -24 9 -46 7 -48 -2 -3 -23 3 -45 12 -40 16
-80 9 -80 -14 0 -31 99 -66 115 -40 12 19 25 10 25 -19 0 -24 -4 -28 -26 -28
-33 0 -52 -19 -36 -35 9 -9 18 -9 38 1 15 6 29 9 32 7 3 -3 7 -50 9 -103 3
-76 0 -115 -15 -173 -11 -41 -18 -77 -16 -79 2 -2 11 24 20 57 14 50 22 63 44
70 35 13 60 39 60 63 0 24 -36 26 -62 2 -17 -15 -18 -14 -18 38 0 30 -3 71 -6
91 l-6 37 33 -5 c28 -5 39 0 65 25 41 40 48 67 23 92 -18 18 -22 18 -49 4 -16
-8 -37 -28 -47 -45 -9 -16 -20 -30 -23 -30 -6 0 -40 143 -40 168 0 6 9 12 19
12 21 0 61 44 61 67 0 27 -32 27 -56 0 -13 -15 -27 -27 -32 -27 -5 0 -14 24
-19 53 -8 41 -11 45 -12 20z"/>
<path d="M2656 3301 c-4 -5 -2 -12 3 -15 5 -4 12 -2 15 3 4 5 2 12 -3 15 -5 4
-12 2 -15 -3z"/>
<path d="M2976 3281 c-4 -5 -2 -12 3 -15 5 -4 12 -2 15 3 4 5 2 12 -3 15 -5 4
-12 2 -15 -3z"/>
<path d="M2637 3164 c-8 -8 1 -24 14 -24 5 0 9 7 9 15 0 15 -12 20 -23 9z"/>
<path d="M2743 3004 c-9 -20 -9 -30 3 -52 10 -19 14 -22 14 -9 0 10 7 20 15
24 14 5 14 8 2 22 -8 9 -16 21 -18 28 -2 7 -9 1 -16 -13z"/>
<path d="M2952 2979 c2 -6 8 -10 13 -10 5 0 11 4 13 10 2 6 -4 11 -13 11 -9 0
-15 -5 -13 -11z"/>
<path d="M2786 2823 c-11 -11 -6 -23 9 -23 8 0 15 4 15 9 0 13 -16 22 -24 14z"/>
<path d="M2067 2703 c-12 -11 -8 -23 8 -23 8 0 15 7 15 15 0 16 -12 20 -23 8z"/>
<path d="M2110 2632 c19 -28 20 -35 9 -49 -12 -14 -11 -15 6 -10 13 4 30 -2
49 -19 27 -24 27 -26 11 -44 -26 -28 -9 -44 25 -23 24 14 34 15 57 5 26 -11
27 -11 9 3 -11 8 -23 15 -27 15 -4 0 -7 18 -6 40 2 43 -16 56 -21 15 -4 -30
-11 -31 -41 -4 -17 16 -21 27 -16 50 7 30 -3 37 -23 17 -8 -8 -16 -5 -32 13
-21 23 -21 23 0 -9z"/>
<path d="M1990 2590 c0 -5 5 -10 10 -10 6 0 10 5 10 10 0 6 -4 10 -10 10 -5 0
-10 -4 -10 -10z"/>
<path d="M2342 2538 c-7 -7 -12 -25 -12 -41 0 -21 -4 -28 -14 -24 -9 4 -13 1
-11 -6 3 -7 -13 -19 -35 -29 -28 -12 -40 -23 -40 -37 0 -47 89 -31 105 19 5
15 12 19 23 15 13 -5 14 -3 5 6 -9 9 -8 19 5 45 14 30 14 36 1 49 -12 12 -17
13 -27 3z"/>
<path d="M2380 2426 c0 -2 8 -10 18 -17 15 -13 16 -12 3 4 -13 16 -21 21 -21
13z"/>
<path d="M2357 2353 c-12 -11 -8 -23 8 -23 8 0 15 7 15 15 0 16 -12 20 -23 8z"/>
<path d="M3060 1905 c0 -19 5 -35 10 -35 6 0 10 16 10 35 0 19 -4 35 -10 35
-5 0 -10 -16 -10 -35z"/>
<path d="M2846 1837 c-21 -50 -40 -98 -43 -104 -3 -7 0 -13 6 -13 6 0 16 11
21 25 8 22 16 25 55 25 39 0 47 -3 55 -25 5 -14 15 -25 21 -25 6 0 9 6 6 13
-3 6 -22 53 -42 102 -20 50 -38 91 -39 92 -1 2 -19 -39 -40 -90z m73 -39 c1
-5 -15 -8 -35 -8 -30 0 -35 3 -29 18 4 9 12 30 18 47 l10 29 18 -39 c10 -22
18 -43 18 -47z"/>
<path d="M1690 1819 l0 -102 52 5 c40 4 57 11 75 32 25 29 31 83 12 118 -13
24 -67 48 -109 48 l-30 0 0 -101z m113 50 c9 -12 17 -36 17 -54 0 -40 -38 -75
-81 -75 l-29 0 0 81 0 82 38 -6 c20 -4 45 -16 55 -28z"/>
<path d="M1950 1820 l0 -100 55 0 c30 0 55 5 55 10 0 6 -20 10 -45 10 -45 0
-45 0 -45 35 0 35 0 35 45 35 25 0 45 5 45 10 0 6 -20 10 -45 10 -45 0 -45 0
-45 35 0 35 0 35 45 35 25 0 45 5 45 10 0 6 -25 10 -55 10 l-55 0 0 -100z"/>
<path d="M2175 1884 c9 -22 28 -67 43 -101 14 -35 28 -63 32 -63 7 0 90 193
85 199 -9 9 -24 -14 -50 -78 -15 -39 -31 -71 -35 -71 -3 0 -20 32 -36 72 -16
39 -36 74 -42 76 -10 3 -9 -6 3 -34z"/>
<path d="M2440 1820 c0 -60 4 -100 10 -100 6 0 10 40 10 100 0 60 -4 100 -10
100 -6 0 -10 -40 -10 -100z"/>
<path d="M2570 1820 c0 -115 18 -137 22 -28 l3 72 49 -72 c27 -40 51 -72 53
-72 2 0 3 45 3 100 0 60 -4 100 -10 100 -6 0 -10 -31 -10 -72 l0 -72 -51 72
c-28 40 -52 72 -55 72 -2 0 -4 -45 -4 -100z"/>
<path d="M3208 1908 c-41 -34 -23 -77 40 -96 53 -16 71 -37 50 -59 -21 -21
-64 -20 -88 2 -26 24 -39 11 -15 -15 25 -27 88 -27 115 0 11 11 20 24 20 29 0
20 -37 51 -75 63 -33 11 -40 18 -40 38 0 20 6 26 28 28 16 2 35 -2 43 -9 8 -6
18 -9 22 -5 11 12 -29 36 -58 36 -14 0 -33 -6 -42 -12z"/>
<path d="M2128 1499 c-32 -18 -22 -49 22 -66 27 -11 40 -22 38 -32 -4 -21 -45
-26 -65 -9 -14 11 -15 11 -11 -2 6 -18 31 -24 64 -16 17 5 24 13 24 30 0 19
-9 27 -41 40 -47 19 -47 41 -1 41 18 0 32 3 32 7 0 5 -4 8 -9 8 -5 0 -15 2
-23 5 -7 2 -21 0 -30 -6z"/>
<path d="M2295 1445 c-15 -36 -25 -69 -21 -72 4 -4 9 3 13 15 7 30 58 31 73 1
7 -11 13 -19 16 -17 3 4 -43 127 -50 136 -2 1 -15 -27 -31 -63z m39 -23 c-25
-6 -32 2 -22 28 l9 25 14 -25 c12 -21 12 -25 -1 -28z"/>
<path d="M2624 1498 c-27 -12 -46 -52 -37 -75 19 -54 76 -70 113 -33 52 52
-10 140 -76 108z m72 -33 c20 -30 11 -62 -21 -77 -52 -23 -99 46 -59 86 23 24
61 20 80 -9z"/>
<path d="M2800 1443 c0 -42 4 -73 10 -73 6 0 10 21 10 47 l0 47 35 -50 35 -49
-2 70 c-1 66 -1 67 -7 21 l-6 -48 -37 53 -38 54 0 -72z"/>
<path d="M2462 1438 l-2 -68 33 1 c29 2 30 2 5 6 -26 4 -27 8 -31 66 l-3 62
-2 -67z"/>
</g>
</svg>
